<svg width="12" height="11" viewBox="0 0 12 11" fill="none" xmlns="http://www.w3.org/2000/svg">
<path d="M0 0.5C0 0.367392 0.0526785 0.240215 0.146447 0.146447C0.240215 0.0526785 0.367392 0 0.5 0H11.5C11.6326 0 11.7598 0.0526785 11.8536 0.146447C11.9473 0.240215 12 0.367392 12 0.5C12 0.632608 11.9473 0.759785 11.8536 0.853553C11.7598 0.947321 11.6326 1 11.5 1H0.5C0.367392 1 0.240215 0.947321 0.146447 0.853553C0.0526785 0.759785 0 0.632608 0 0.5ZM0 5.5C0 5.36739 0.0526785 5.24021 0.146447 5.14645C0.240215 5.05268 0.367392 5 0.5 5H11.5C11.6326 5 11.7598 5.05268 11.8536 5.14645C11.9473 5.24021 12 5.36739 12 5.5C12 5.63261 11.9473 5.75979 11.8536 5.85355C11.7598 5.94732 11.6326 6 11.5 6H0.5C0.367392 6 0.240215 5.94732 0.146447 5.85355C0.0526785 5.75979 0 5.63261 0 5.5ZM0.5 10C0.367392 10 0.240215 10.0527 0.146447 10.1464C0.0526785 10.2402 0 10.3674 0 10.5C0 10.6326 0.0526785 10.7598 0.146447 10.8536C0.240215 10.9473 0.367392 11 0.5 11H11.5C11.6326 11 11.7598 10.9473 11.8536 10.8536C11.9473 10.7598 12 10.6326 12 10.5C12 10.3674 11.9473 10.2402 11.8536 10.1464C11.7598 10.0527 11.6326 10 11.5 10H0.5Z" fill="#595959"/>
</svg>
