<svg width="16" height="16" viewBox="0 0 16 16" fill="none" xmlns="http://www.w3.org/2000/svg">
<g clip-path="url(#clip0_510_6)">
<path d="M0.425049 8C0.425049 11.275 2.52505 14.05 5.42505 15.075V0.924999C2.52505 1.95 0.425049 4.725 0.425049 8Z" fill="#75A843"/>
<path d="M15.425 8C15.425 4.725 13.325 1.95 10.425 0.924999V15.075C13.35 14.05 15.425 11.275 15.425 8Z" fill="#ED4C5C"/>
<path d="M5.42505 15.075C6.20005 15.35 7.05005 15.5 7.92505 15.5C8.80005 15.5 9.65005 15.35 10.425 15.075V0.925C9.65005 0.65 8.80005 0.5 7.92505 0.5C7.05005 0.5 6.20005 0.65 5.42505 0.925V15.075Z" fill="white"/>
<circle cx="8" cy="8" r="7.5" stroke="white"/>
</g>
<defs>
<clipPath id="clip0_510_6">
<rect width="16" height="16" fill="white"/>
</clipPath>
</defs>
</svg>
